<?xml version="1.0" standalone="no"?>
<!DOCTYPE svg PUBLIC "-//W3C//DTD SVG 20010904//EN"
 "http://www.w3.org/TR/2001/REC-SVG-20010904/DTD/svg10.dtd">
<svg version="1.0" xmlns="http://www.w3.org/2000/svg"
 width="652.000000pt" height="652.000000pt" viewBox="0 0 652.000000 652.000000"
 preserveAspectRatio="xMidYMid meet">
<metadata>
Created by potrace 1.14, written by Peter Selinger 2001-2017
</metadata>
<g transform="translate(0.000000,652.000000) scale(0.100000,-0.100000)"
fill="#000000" stroke="none">
<path d="M2333 5785 c-51 -22 -75 -69 -69 -134 6 -71 34 -101 98 -106 82 -7
136 39 144 123 9 99 -78 159 -173 117z"/>
<path d="M2868 5793 c-17 -3 -28 -11 -29 -21 -4 -63 -20 -245 -25 -282 -8 -66
-35 -269 -38 -287 -2 -10 -7 -40 -10 -68 -4 -27 -11 -66 -16 -85 -5 -19 -11
-51 -14 -70 -9 -57 -25 -138 -51 -261 -14 -63 -27 -124 -29 -135 -30 -147 -38
-182 -42 -196 -4 -14 2 -16 53 -12 75 5 156 14 159 17 1 1 5 25 8 52 7 52 10
68 27 170 35 215 90 379 158 472 61 85 195 129 252 84 15 -11 29 -32 31 -45 6
-31 -21 -91 -56 -129 -44 -44 -157 -96 -212 -97 -27 0 -32 -20 -29 -98 5 -114
69 -255 159 -351 89 -93 175 -117 242 -66 62 48 62 51 -36 153 -67 69 -99 113
-129 173 -23 45 -41 87 -41 94 0 7 12 16 28 20 102 25 227 121 271 209 68 138
18 296 -109 341 -155 56 -327 -26 -406 -192 -23 -50 -52 -74 -40 -35 61 211
101 404 105 507 3 119 -9 138 -95 140 -32 1 -71 0 -86 -2z"/>
<path d="M3898 5793 c-17 -3 -28 -11 -29 -21 -1 -9 -2 -30 -4 -47 -1 -16 -6
-70 -9 -119 -4 -49 -9 -96 -11 -105 -1 -9 -6 -47 -9 -86 -4 -38 -9 -77 -11
-85 -2 -8 -6 -37 -10 -65 -6 -54 -27 -183 -40 -245 -3 -14 -9 -50 -15 -80 -6
-30 -12 -66 -15 -80 -3 -14 -18 -86 -34 -160 -16 -74 -32 -147 -35 -163 -2
-15 -7 -35 -10 -45 -3 -9 -7 -34 -10 -54 -3 -21 -7 -43 -8 -50 -2 -10 14 -12
67 -9 39 2 79 5 90 6 11 1 28 3 37 4 13 1 18 15 23 59 14 128 58 342 91 444
59 183 146 283 258 295 126 15 161 -90 62 -185 -52 -51 -106 -79 -178 -94 -32
-7 -59 -17 -59 -23 -8 -69 -3 -121 15 -186 39 -135 139 -275 230 -321 73 -37
171 -9 196 56 5 16 -5 31 -48 70 -72 67 -136 151 -172 228 -37 77 -37 84 -3
93 58 14 157 72 202 117 89 90 119 192 87 301 -30 102 -121 154 -255 145 -118
-9 -217 -81 -277 -204 -15 -30 -31 -54 -36 -54 -6 0 -8 6 -5 14 10 26 85 329
92 371 24 148 22 233 -8 262 -16 16 -99 24 -159 16z"/>
<path d="M1014 5658 c-5 -8 -10 -31 -19 -83 -3 -16 -8 -41 -10 -55 -8 -36 -12
-59 -20 -110 -4 -25 -9 -52 -10 -60 -1 -8 -6 -35 -10 -60 -4 -25 -9 -54 -11
-65 -12 -62 -13 -65 -98 -545 -25 -140 -48 -267 -52 -282 l-6 -28 110 0 109 0
18 103 c10 56 19 109 20 117 2 8 11 60 20 115 10 55 23 129 29 165 l11 65 279
3 278 2 -6 -37 c-3 -21 -12 -74 -20 -118 -8 -44 -18 -100 -21 -125 -4 -24 -8
-47 -10 -50 -1 -3 -6 -25 -9 -50 -3 -25 -12 -78 -20 -117 l-14 -73 109 0 c60
0 109 3 110 8 0 4 2 14 4 22 4 20 10 54 34 190 11 63 25 140 30 170 6 30 13
69 15 85 3 17 8 41 10 55 3 14 8 42 11 62 2 21 9 57 14 80 5 24 12 61 15 83 4
22 19 112 36 200 16 88 32 180 35 205 3 25 11 62 16 84 6 21 8 41 5 44 -7 7
-173 10 -198 4 -10 -2 -18 -19 -23 -49 -3 -25 -8 -55 -11 -66 -8 -39 -15 -80
-44 -246 -16 -90 -32 -166 -34 -169 -7 -6 -544 -7 -550 -1 -2 2 9 74 24 159
16 85 31 171 34 190 3 19 12 68 20 108 7 39 13 72 12 73 -7 6 -209 3 -212 -3z"/>
<path d="M2253 5363 c-22 -4 -23 -10 -24 -86 -1 -45 -3 -91 -4 -102 -1 -11 -5
-47 -9 -80 -3 -33 -8 -71 -10 -85 -3 -14 -7 -43 -11 -65 -9 -67 -16 -105 -41
-235 -13 -69 -26 -141 -29 -160 -3 -19 -8 -42 -10 -50 -2 -8 -7 -31 -10 -50
-3 -19 -8 -43 -11 -52 -6 -19 -4 -20 111 -20 112 0 102 -5 110 65 7 62 10 80
20 127 3 14 7 44 10 68 3 23 17 97 30 165 14 67 28 137 31 156 3 19 12 64 20
100 8 36 17 109 21 163 6 94 5 97 -20 122 -23 23 -34 26 -89 25 -35 -1 -73 -4
-85 -6z"/>
<path d="M5060 5345 c-97 -32 -126 -50 -199 -123 -119 -119 -190 -308 -195
-517 -3 -102 12 -192 39 -245 24 -46 80 -97 122 -111 58 -20 160 -16 215 9 65
29 138 104 178 185 29 60 52 87 46 55 -24 -117 -26 -159 -10 -196 7 -18 24
-36 38 -42 27 -10 136 -5 147 7 4 5 10 60 13 123 4 63 8 129 10 145 4 34 17
120 22 150 5 24 23 126 28 157 11 62 17 96 50 263 20 100 23 131 13 137 -15
10 -79 3 -107 -12 -16 -8 -35 -6 -88 10 -100 32 -238 34 -322 5z m244 -145
c42 -13 42 -15 20 -131 -51 -273 -129 -435 -235 -493 -53 -30 -113 -34 -147
-10 -41 29 -54 69 -51 163 5 164 62 316 154 407 75 76 161 97 259 64z"/>
<path d="M976 3991 c-4 -7 -14 -53 -21 -101 -3 -19 -8 -46 -10 -60 l-5 -25
190 0 c104 1 190 -2 190 -6 0 -5 -14 -84 -64 -364 -4 -21 -12 -69 -21 -120 -3
-16 -12 -66 -19 -110 -8 -44 -17 -96 -21 -115 -3 -19 -19 -109 -35 -200 -17
-91 -30 -171 -30 -177 0 -10 28 -13 108 -13 97 0 108 2 109 18 1 11 15 95 32
188 17 93 32 180 35 194 2 14 7 36 10 50 3 14 8 36 10 50 2 14 7 41 10 60 3
19 8 46 10 60 3 14 16 88 31 165 14 77 28 156 31 175 3 20 11 60 17 90 l12 55
187 1 c103 0 189 2 192 5 2 2 7 20 10 39 3 19 10 57 15 85 5 27 7 52 4 55 -7
7 -973 8 -977 1z"/>
<path d="M2357 3708 c-52 -11 -86 -30 -124 -70 -33 -35 -77 -114 -88 -160 -4
-16 -12 -28 -17 -28 -6 0 -7 10 -4 23 4 12 9 56 13 97 5 72 4 76 -21 100 -28
25 -80 31 -158 16 l-35 -6 1 -58 c2 -63 -13 -227 -28 -312 -3 -14 -12 -68 -21
-120 -23 -137 -22 -132 -55 -304 -16 -87 -33 -162 -36 -167 -6 -11 -4 -11 119
-13 54 -1 100 1 102 4 2 3 6 34 10 70 11 103 63 355 90 437 86 254 219 355
377 285 52 -23 57 -20 81 38 45 106 -68 198 -206 168z"/>
<path d="M4238 3710 c-86 -22 -156 -88 -208 -197 -17 -35 -33 -63 -37 -63 -3
0 -2 17 1 38 22 116 14 182 -25 203 -25 13 -145 9 -163 -5 -10 -8 -16 -48 -20
-136 -3 -69 -7 -134 -10 -145 -3 -20 -13 -81 -21 -145 -3 -19 -7 -46 -10 -60
-3 -14 -8 -38 -10 -55 -12 -70 -49 -267 -65 -347 -9 -48 -15 -90 -12 -93 3 -3
52 -5 109 -5 115 0 109 -5 118 80 8 78 34 224 51 295 73 293 168 426 306 428
41 0 54 -4 76 -27 23 -22 27 -36 29 -89 1 -34 -2 -83 -7 -107 -5 -25 -11 -58
-13 -75 -3 -16 -20 -91 -37 -165 -39 -161 -46 -298 -18 -326 20 -21 111 -27
161 -12 33 10 34 12 36 67 4 114 10 155 46 341 2 14 13 66 24 115 34 155 37
178 35 244 -5 111 -46 187 -124 226 -41 21 -156 29 -212 15z"/>
<path d="M3003 3685 c-257 -72 -425 -359 -410 -700 5 -131 25 -190 82 -249 64
-67 170 -86 277 -50 69 23 153 106 194 191 32 68 50 81 40 31 -3 -18 -8 -62
-12 -98 -6 -60 -5 -68 18 -94 22 -26 30 -29 87 -27 83 2 96 10 97 63 2 63 13
220 18 243 2 11 7 45 11 75 4 30 9 64 11 75 3 11 7 36 10 55 3 19 7 42 9 50 3
8 7 33 11 55 3 22 20 113 38 203 18 89 30 164 28 167 -9 9 -77 4 -112 -9 -30
-11 -42 -10 -90 7 -74 26 -236 32 -307 12z m222 -151 c42 -15 42 -19 19 -139
-44 -218 -94 -348 -166 -430 -48 -54 -86 -76 -142 -80 -97 -7 -132 48 -122
195 6 110 22 175 64 264 46 97 121 171 200 197 29 9 115 5 147 -7z"/>
<path d="M4834 3673 c-20 -76 2 -132 57 -149 38 -12 304 -11 362 1 39 8 46 2
25 -19 -115 -117 -557 -618 -571 -648 -15 -32 -27 -151 -17 -162 3 -2 176 -6
385 -7 l380 -2 6 24 c16 57 10 106 -17 133 -15 14 -34 27 -43 27 -66 6 -299 4
-355 -3 -38 -4 -71 -7 -72 -5 -2 1 14 20 34 42 30 32 144 158 317 351 6 6 28
31 50 55 197 215 215 242 215 337 l0 42 -332 1 c-183 0 -352 2 -375 5 -40 5
-43 4 -49 -23z"/>
<path d="M1310 2094 c-133 -25 -226 -73 -315 -162 -63 -62 -100 -123 -131
-212 -28 -81 -28 -219 1 -290 72 -177 245 -292 428 -284 90 4 108 8 162 34 30
14 43 27 42 40 -1 17 -3 17 -42 -3 -58 -31 -177 -33 -244 -5 -132 54 -204 183
-203 358 3 244 151 454 351 499 119 26 291 -27 291 -91 0 -10 -16 -35 -35 -55
-46 -49 -49 -81 -13 -120 29 -31 78 -39 116 -19 83 43 53 188 -53 262 -75 53
-226 73 -355 48z"/>
<path d="M3220 1844 c-58 -17 -105 -64 -96 -96 9 -37 20 -47 53 -54 39 -8 73
23 73 65 0 87 138 77 227 -16 30 -33 83 -129 83 -152 0 -5 -41 -31 -92 -58
-107 -56 -202 -141 -212 -190 -6 -24 -21 -41 -61 -67 -84 -56 -102 -60 -130
-32 -23 23 -24 30 -19 93 3 37 7 82 9 98 2 17 7 67 11 113 8 98 -2 126 -53
143 -64 21 -107 1 -250 -116 l-31 -26 0 46 c1 50 -16 91 -41 97 -28 8 -77 -11
-106 -39 -22 -23 -24 -29 -11 -31 29 -6 31 -43 10 -207 -3 -22 -7 -49 -9 -60
-2 -11 -4 -29 -4 -40 -1 -27 -103 -95 -142 -95 -34 0 -57 30 -53 68 1 15 5 56
8 92 3 36 9 92 13 125 10 96 10 109 -1 133 -12 28 -55 52 -93 52 -36 0 -115
-46 -178 -104 -27 -25 -53 -45 -56 -46 -4 0 -5 15 -3 33 13 105 -70 147 -145
72 -24 -24 -24 -25 -7 -38 19 -14 22 -67 11 -167 -2 -19 -5 -57 -6 -84 -2 -43
-6 -51 -40 -76 -65 -47 -95 -55 -125 -35 -29 19 -29 20 -8 252 8 82 -4 125
-40 141 -18 8 -31 7 -52 -4 -43 -22 -46 -28 -30 -58 8 -15 12 -40 10 -54 -5
-34 -11 -96 -20 -198 -6 -79 -6 -82 22 -113 51 -57 135 -52 232 14 44 30 52
31 45 5 -6 -22 -7 -22 60 -24 58 -1 62 4 72 94 4 36 9 74 11 85 1 11 6 39 9
63 6 47 27 73 113 140 35 27 64 42 83 42 16 0 29 -3 30 -7 0 -5 2 -15 4 -24 1
-8 -1 -38 -5 -66 -10 -62 -23 -206 -23 -250 1 -43 32 -95 68 -112 39 -19 120
-2 178 36 69 47 66 46 64 16 -2 -26 0 -27 51 -28 52 -1 76 6 72 19 -2 5 11
120 15 136 1 3 5 33 9 67 7 55 13 68 49 104 81 81 169 122 183 84 3 -8 1 -53
-6 -101 -22 -167 -24 -258 -6 -292 22 -44 68 -65 122 -58 50 6 70 15 139 64
33 24 50 31 53 22 3 -7 16 -26 31 -42 34 -38 104 -57 176 -47 173 23 256 162
222 370 l-8 46 53 15 c81 23 92 13 84 -76 -3 -39 -8 -82 -10 -96 -5 -29 -13
-91 -21 -170 l-6 -55 61 0 c33 0 60 3 60 6 0 6 26 199 35 256 3 22 20 46 51
75 81 75 143 105 160 76 7 -11 6 -75 -1 -163 -2 -22 -7 -85 -10 -140 -4 -55
-9 -103 -12 -107 -2 -5 2 -8 9 -9 7 0 32 -2 55 -3 24 -2 47 2 52 8 5 6 12 67
16 136 4 69 11 132 15 140 15 28 110 112 148 130 57 28 74 14 67 -58 -3 -31
-8 -68 -10 -82 -32 -187 -19 -272 47 -306 50 -26 142 -4 196 46 27 25 28 25
66 -7 17 -14 47 -33 66 -41 66 -28 207 -9 280 37 104 65 164 214 127 318 l-14
43 48 31 c70 45 83 36 75 -49 -3 -37 -8 -78 -10 -92 -5 -27 -16 -108 -22 -155
-2 -16 -6 -47 -10 -67 -5 -32 -3 -38 13 -39 10 0 35 -2 56 -3 61 -3 56 -10 77
139 7 50 14 97 16 105 1 8 3 25 3 38 2 46 159 176 201 165 11 -3 20 -8 21 -12
0 -3 2 -13 3 -21 2 -8 0 -44 -5 -80 -21 -169 -23 -200 -22 -270 6 -254 213
-434 490 -424 84 3 147 27 185 73 49 58 46 139 -7 163 -21 9 -32 8 -60 -5 -42
-20 -53 -54 -34 -109 15 -46 7 -66 -35 -86 -61 -30 -194 -4 -279 55 -49 34
-101 102 -123 163 -19 52 -27 211 -14 310 15 121 21 218 14 244 -3 15 -19 33
-35 41 -63 33 -132 9 -234 -80 l-60 -52 -1 53 c0 60 -22 94 -61 94 -21 0 -108
-45 -189 -97 -18 -11 -23 -10 -41 6 -33 31 -77 50 -139 59 -45 7 -54 7 -39 -2
39 -22 71 -64 86 -114 22 -68 20 -195 -4 -240 -51 -94 -192 -96 -249 -4 -42
68 -52 256 -16 299 20 24 -7 13 -45 -18 -76 -63 -115 -202 -81 -288 8 -18 14
-35 14 -37 0 -2 -20 -15 -45 -30 -82 -48 -119 -11 -104 101 11 80 22 205 23
254 0 36 -5 48 -27 67 -52 44 -137 24 -222 -51 -22 -20 -51 -44 -65 -54 l-25
-19 0 55 c0 46 -4 57 -25 73 -55 43 -147 14 -250 -78 l-45 -41 -5 47 c-3 26
-10 56 -16 66 -21 35 -154 40 -225 9 l-47 -21 -39 62 c-22 34 -59 78 -84 98
-85 70 -214 100 -309 72z m344 -303 c4 -5 8 -42 10 -83 6 -135 -39 -229 -118
-243 -93 -18 -145 67 -102 168 17 42 73 98 134 137 49 31 67 36 76 21z"/>
<path d="M4913 1637 c-18 -7 -38 -17 -44 -24 -7 -7 9 -4 37 6 27 10 56 21 64
24 11 4 9 5 -5 5 -11 0 -34 -5 -52 -11z"/>
<path d="M19 1598 c-1 -2 -2 -87 -3 -190 -1 -121 2 -188 9 -188 19 0 38 18 31
29 -11 16 5 13 25 -5 23 -20 88 -23 122 -5 38 20 61 80 55 142 -5 44 -11 58
-38 82 -28 25 -39 28 -72 24 -22 -3 -47 -12 -57 -21 -10 -9 -19 -16 -22 -16
-2 0 -3 34 -3 75 2 73 1 75 -22 75 -13 0 -25 -1 -25 -2z m152 -172 c51 -11 67
-104 26 -152 -31 -36 -83 -36 -113 -1 -32 37 -27 112 9 143 15 13 33 22 40 19
6 -2 24 -6 38 -9z"/>
<path d="M331 1363 c27 -65 48 -127 49 -137 0 -11 -18 -36 -40 -57 -41 -39
-48 -53 -30 -64 22 -14 76 34 108 95 14 25 112 264 112 272 0 2 -9 4 -20 5
-24 2 -35 -17 -69 -119 l-27 -77 -38 100 c-36 92 -41 99 -66 99 l-27 0 48
-117z"/>
</g>
</svg>
